<svg width="100" height="100" viewBox="0 0 100 100" fill="none" xmlns="http://www.w3.org/2000/svg">
<g clip-path="url(#clip0_15_117)">
<path d="M0 100H100V0H0V100Z" fill="white"/>
<path fill-rule="evenodd" clip-rule="evenodd" d="M63.7121 80.0872C63.4387 80.2698 63.53 80.9982 63.8947 81.1803C64.9878 81.089 66.4456 81.089 67.63 81.089C69.0878 81.089 70.9098 81.089 72.4594 81.1803C72.8231 80.9977 72.9144 80.2693 72.5508 79.9959L71.6392 79.9046C70.9103 79.8133 70.5461 79.722 70.5461 79.4486C70.5461 79.267 70.6369 79.0849 70.8196 78.5376C72.004 76.4422 73.5531 74.1642 75.0103 72.2514C75.5572 72.8895 78.0173 76.6248 78.5635 77.4445C79.4751 78.9028 79.5658 79.1762 79.5658 79.4486C79.5658 79.6322 79.2022 79.8133 78.2912 79.9046L77.3791 79.9959C77.0149 80.1785 77.1063 80.9982 77.471 81.1803C79.3843 81.089 80.9329 81.089 83.3935 81.089C86.2173 81.089 87.4022 81.089 88.9508 81.1803C89.3155 80.9069 89.3155 80.2693 89.0421 79.9959L87.9485 79.9046C86.582 79.722 85.671 79.267 84.4861 77.4445C83.2109 75.7138 81.4797 73.1624 78.8375 69.3353C78.4733 68.8803 78.2912 68.5156 78.2912 68.333C78.2912 68.1504 78.6548 67.6046 79.0196 67.1486C80.6589 65.0532 82.5733 62.7752 84.304 61.2271C84.9416 60.6798 85.5797 60.4977 86.308 60.4064L87.4017 60.3161C87.6751 59.9514 87.6751 59.3138 87.3104 59.1317C86.126 59.222 84.8508 59.222 83.2104 59.222C81.5705 59.222 80.204 59.222 79.1109 59.1317C78.7462 59.3143 78.7462 60.0427 79.0196 60.3161L80.1126 60.4977C80.5676 60.59 80.841 60.6803 80.841 60.7711C80.841 60.9537 80.841 61.1358 80.4768 61.6821C79.293 63.4138 78.2907 64.8716 76.9231 66.6936C75.8306 65.2353 74.8282 63.6872 73.8254 62.1381C73.4612 61.5005 73.2786 61.2271 73.2786 60.9537C73.2786 60.6803 73.9162 60.59 74.463 60.4064L75.2827 60.3161C75.5561 60.0427 75.5561 59.3138 75.1006 59.1317C74.008 59.222 72.6405 59.222 69.7249 59.222C67.5382 59.222 65.3515 59.222 64.2584 59.1317C63.8942 59.3143 63.8942 60.0427 64.1671 60.3161L64.8047 60.4064C66.3538 60.59 67.0832 61.044 67.9034 62.1381C69.5428 64.3248 71.8208 67.6046 73.0052 69.245C73.4612 69.8826 73.5525 70.156 73.5525 70.3371C73.5525 70.5197 73.3694 70.8844 73.0965 71.3404C71.5474 73.4358 69.7254 75.8959 68.6329 77.1716C67.5392 78.7197 66.7196 79.6317 64.6231 79.9954L63.7121 80.0872Z" fill="black"/>
<path fill-rule="evenodd" clip-rule="evenodd" d="M51.9585 61.9561C51.9585 60.863 51.9585 60.7717 53.0515 60.7717H55.8758C57.607 60.7717 58.7001 61.1364 59.3383 61.6827C59.7938 62.1387 60.3406 63.141 60.7047 64.3254C61.0695 64.5988 61.8891 64.5988 61.9805 64.1428C61.8891 61.9561 61.6157 59.6786 61.5244 59.1323C61.0695 59.2226 59.0649 59.2226 56.8781 59.2226H49.3168C47.6764 59.2226 45.9457 59.2226 44.2145 59.1323C43.9411 59.3149 43.8498 60.1346 44.2145 60.3167L45.0342 60.4983C46.6741 60.6809 46.8567 60.9543 46.8567 63.8694V76.2607C46.8567 79.3594 46.6741 79.5405 45.0342 79.8144L43.3943 79.997C43.1209 80.1797 43.1209 80.9993 43.3943 81.1814C46.0359 81.0901 47.7677 81.0901 49.4989 81.0901H54.0539C56.97 81.0901 60.3411 81.0901 62.2549 81.1814C62.7104 80.2704 63.6214 77.6277 63.7127 75.897C63.6214 75.441 62.7104 75.3497 62.437 75.7144C60.4324 79.4492 59.248 79.5405 56.1503 79.5405C53.5994 79.5405 52.9618 79.2681 52.5063 78.7208C52.0508 78.0832 51.9595 77.0804 51.9595 75.5323V71.5226C51.9595 70.6116 51.9595 70.5203 52.8705 70.5203H55.3306C57.1531 70.5203 57.6086 70.7937 57.9728 72.4336L58.1554 73.2543C58.4283 73.5277 59.248 73.5277 59.4311 73.163C59.3398 72.1607 59.3398 70.9763 59.3398 69.7006C59.3398 68.4249 59.3398 67.2405 59.4311 66.1479C59.248 65.8745 58.4283 65.8745 58.1554 66.1479L57.9728 66.9676C57.6086 68.5157 57.1531 68.7896 55.3306 68.7896H52.8705C51.9595 68.7896 51.9595 68.6983 51.9595 67.7873V61.9561H51.9585Z" fill="black"/>
<path fill-rule="evenodd" clip-rule="evenodd" d="M10.7763 71.796C9.86533 71.796 9.68324 71.7047 10.0474 70.7937L10.8676 68.3336C11.4139 66.7855 11.9607 65.4185 12.3249 64.6901C12.6896 65.3277 13.1451 66.6942 13.6011 68.1515L14.5121 70.7942C14.8763 71.7052 14.6029 71.7965 13.7832 71.7965L10.7763 71.796ZM27.9965 76.2602C27.9965 79.3589 27.7231 79.6323 26.1746 79.9047L25.4451 79.996L24.2607 79.8134C22.8942 79.54 22.6208 78.8111 21.8919 76.807L17.063 63.7776C16.1515 61.5006 15.6965 60.3162 15.4231 59.3139C15.3318 58.8579 15.0589 58.6758 14.6029 58.6758C14.6029 58.6758 13.2364 60.3162 11.5965 60.6799C11.6873 61.5909 11.0497 62.684 10.1387 64.7794L6.94973 72.8901C6.03873 75.3492 5.40062 76.8988 4.76251 78.2643C4.21622 79.54 3.48732 79.8134 2.66763 79.9047L1.66533 79.996C1.39192 80.2694 1.39192 80.9983 1.75663 81.1804C3.39653 81.1804 4.21622 81.0891 5.40062 81.0891C6.94973 81.0891 8.31622 81.0891 9.59193 81.1804C9.95664 80.9978 9.86533 80.2694 9.68324 79.996L8.58911 79.8134C7.58732 79.7221 7.31444 79.4487 7.31444 79.2671C7.31444 78.9937 7.31444 78.7198 7.58732 78.0827L8.86303 74.2556C9.04512 73.618 9.13591 73.5272 10.0474 73.5272H13.9653C15.241 73.5272 15.5139 73.6185 15.6965 74.1648L16.6075 76.9896C17.063 78.2643 17.3364 79.085 17.3364 79.2676C17.3364 79.4492 17.1543 79.7226 16.3341 79.8139L15.241 79.9965C14.8763 80.2699 14.9676 80.9988 15.3318 81.1809C16.9717 81.0896 18.3387 81.0896 20.0694 81.0896C21.8011 81.0896 23.6226 81.0896 25.263 81.1809H25.5364C27.3584 81.0896 28.9075 81.0896 30.5474 81.0896C32.2786 81.0896 34.0098 81.0896 35.9231 81.1809C36.3786 80.9983 36.3786 80.1786 35.9231 80.0878L34.8295 79.9052C33.2809 79.6328 33.0075 79.3589 33.0075 76.2607V62.23C33.0075 61.0446 33.0989 60.6809 34.3746 60.6809C37.563 60.6809 38.9295 63.2323 38.9295 65.6924C38.9295 68.1515 38.3833 70.0658 35.3763 70.9768C35.1937 71.1594 35.1937 71.7052 35.4676 71.8878H36.652C38.5648 71.8878 44.3966 71.0681 44.3966 65.6929C44.3966 62.4131 42.2099 60.7727 40.0231 59.953C38.5648 59.497 36.5607 59.1334 33.5543 59.1334C30.4566 59.1334 27.7231 59.2236 25.3543 59.4057C24.9896 59.6791 24.9896 60.408 25.3543 60.5912L26.4474 60.6814C27.9052 60.864 27.9965 61.2288 27.9965 64.5085V76.2602Z" fill="black"/>
<path fill-rule="evenodd" clip-rule="evenodd" d="M19.4318 61.8648L20.7075 62.1382L23.8052 58.585L20.6167 58.4937L19.4318 61.8648Z" fill="black"/>
<path fill-rule="evenodd" clip-rule="evenodd" d="M58.4272 49.1093C80.6584 48.4717 98.607 41.0006 98.3347 32.7092C98.0613 24.2358 79.748 18.0404 57.4254 18.678C37.2901 19.3156 8.58908 28.2445 2.6676 52.5722L25.8098 52.7537C23.7134 50.0202 23.4405 45.5561 23.8052 43.0046C26.4474 44.6445 29.9098 45.9202 33.9185 46.9225C32.9551 48.8414 32.0436 50.7858 31.185 52.7537L52.5965 52.8451C51.1387 51.9341 50.0451 50.5671 49.3167 49.1093C52.2318 49.2006 55.2387 49.2913 58.4272 49.1093ZM56.3318 22.0491C51.1387 25.056 44.5786 29.9757 36.3786 42.5491C33.2809 40.5445 31.4584 38.1757 31.3671 35.4422C31.2763 28.6092 42.3914 22.5959 56.3318 22.0491ZM48.2231 46.467C45.5809 37.6294 55.0566 28.0624 60.7052 22.0491C72.641 22.5046 81.9347 27.2422 82.0254 33.3468C82.2081 40.1803 71.0011 46.285 57.0612 46.8312C53.963 46.9225 50.9566 46.8312 48.2231 46.467Z" fill="#CC2229"/>
<path fill-rule="evenodd" clip-rule="evenodd" d="M94.1433 59.041C92.6855 59.041 91.319 60.0433 91.319 61.5011C91.319 62.9584 92.3214 63.9602 93.9618 63.9602C95.3283 63.9602 96.6948 63.1405 96.6948 61.5011C96.6942 60.1341 95.6919 59.041 94.1433 59.041ZM96.3301 71.341C96.3301 69.7919 96.33 68.3336 96.4214 67.3323C96.2387 67.1487 96.0561 67.0589 95.7832 67.0589C94.6907 67.6052 92.23 68.5162 90.5907 68.9722C90.3173 69.1548 90.3173 69.7919 90.5907 69.9745L91.0456 70.2479C91.6832 70.7029 91.6832 71.0676 91.6832 72.4336V77.4451C91.6832 79.7231 91.5925 79.9965 90.4081 80.1791H89.7705C89.4063 80.4515 89.4063 81.1814 89.7705 81.3625C90.9543 81.2722 92.4127 81.2722 94.0526 81.2722C95.6006 81.2722 97.0595 81.2722 98.2439 81.3625C98.6075 81.1809 98.6075 80.4515 98.3352 80.1791H97.6063C96.4219 79.9965 96.3306 79.7231 96.3306 77.4451L96.3301 71.341ZM94.1433 59.6781C96.9121 59.8991 96.5858 63.3734 93.9612 63.3226C91.704 63.4891 90.9813 59.9375 94.1433 59.6781ZM94.6901 68.3336L95.0543 68.151L95.3277 68.0597L95.6001 67.8781H95.6919V70.4295C95.321 72.749 95.3801 75.9131 95.6919 78.174V78.9024L95.7827 79.4487L95.9653 79.9047L96.2387 80.3607L96.6035 80.6341H96.7855H91.2277H91.4104L91.774 80.3607L92.1387 79.9047L92.2301 79.4487L92.3214 78.9024L92.4127 78.174V72.4331C92.4246 71.2129 92.368 70.1156 91.137 69.518C92.3504 69.1927 93.5063 68.7325 94.6901 68.3336Z" fill="black"/>
</g>
<defs>
<clipPath id="clip0_15_117">
<rect width="100" height="100" fill="white"/>
</clipPath>
</defs>
</svg>
