<svg width="120" height="121" viewBox="0 0 120 121" fill="none" xmlns="http://www.w3.org/2000/svg">
<path d="M108.752 121.007H11.2558C5.05208 121.007 0.00378418 115.96 0.00378418 109.75V53.4701C0.00378418 53.4212 0.0302151 53.3836 0.0302151 53.3385C0.0339909 53.2031 0.079301 53.0752 0.109508 52.9436C0.151042 52.6427 0.203904 52.3569 0.317179 52.0748C0.332282 52.0221 0.336058 51.9657 0.358713 51.9168C0.43423 51.7551 0.551281 51.6197 0.657005 51.473C0.758952 51.3188 0.804262 51.1458 0.925089 51.0029C0.989279 50.9314 1.07235 50.9051 1.13654 50.8412C1.16674 50.8111 1.18562 50.7697 1.21583 50.7396C1.24981 50.7058 1.26492 50.6644 1.2989 50.6343L18.7546 35.4961V19.7034C18.7546 17.6311 20.4349 15.9499 22.504 15.9499H41.2964L57.5476 1.85726C58.9598 0.638684 61.0478 0.638684 62.46 1.85726L78.715 15.9499H97.5036C99.5765 15.9499 101.253 17.6311 101.253 19.7034V35.4961L118.712 50.6343C118.746 50.6644 118.758 50.7095 118.796 50.7396C118.826 50.7697 118.845 50.8111 118.875 50.8449C118.939 50.9051 119.022 50.9352 119.082 51.0029C119.203 51.142 119.249 51.315 119.343 51.4655C119.453 51.6159 119.573 51.7551 119.649 51.9168C119.672 51.9695 119.675 52.0259 119.69 52.0785C119.804 52.3569 119.853 52.6389 119.894 52.9323C119.928 53.0677 119.974 53.1993 119.977 53.3385C119.977 53.3836 120.004 53.4212 120.004 53.4701V109.75C120.004 115.96 114.955 121.007 108.752 121.007ZM106.849 113.504L60.3682 72.2979C60.2435 72.1926 59.7602 72.1926 59.5941 72.3355L13.1588 113.504H106.849ZM7.19676 108.761L34.0959 84.9162L7.19676 61.4511V108.761ZM9.46982 53.4776L18.7546 61.5752V45.429L9.46982 53.4776ZM60.0057 9.65768L52.7485 15.9499H67.2591L60.0057 9.65768ZM78.3827 23.2125C78.0278 23.3216 77.6691 23.4419 77.299 23.4419C76.861 23.4419 76.423 23.3667 76.0039 23.2125H26.076V67.9652L39.7558 79.899L54.6666 66.6789C57.6835 64.0951 62.324 64.0951 65.2956 66.6413L80.248 79.8952L94.0411 67.8674V23.2125H78.3827ZM101.253 45.429V61.5752L110.534 53.4776L101.253 45.429ZM112.92 61.3533L85.9117 84.9162L112.92 108.859V61.3533Z" fill="#FF0000"/>
</svg>
