<svg width="66" height="64" viewBox="0 0 66 64" fill="none" xmlns="http://www.w3.org/2000/svg">
<path d="M63.017 10.3333C63.017 38.868 39.4929 62 10.4746 62C9.16536 62 7.86732 61.953 6.5821 61.8603C5.10719 61.754 4.36969 61.701 3.69841 61.321C3.14241 61.0063 2.61512 60.4483 2.33644 59.88C2 59.194 2 58.3937 2 56.7933V47.4023C2 46.0563 2 45.3833 2.22525 44.8067C2.42424 44.297 2.74742 43.8433 3.16644 43.4853C3.64078 43.08 4.28393 42.85 5.5702 42.39L16.4408 38.503C17.9374 37.968 18.6857 37.7003 19.3956 37.7457C20.0216 37.7857 20.624 37.996 21.1358 38.3527C21.7162 38.757 22.1259 39.4283 22.9452 40.7713L25.7288 45.3333C34.7115 41.333 41.9936 34.163 46.0678 25.3333L41.4285 22.5961C40.0627 21.7904 39.38 21.3876 38.9688 20.8169C38.6061 20.3136 38.3922 19.7212 38.3515 19.1057C38.3054 18.4076 38.5776 17.6718 39.1217 16.2002L43.0746 5.5107C43.5424 4.24587 43.7763 3.61343 44.1885 3.147C44.5525 2.73497 45.0139 2.41717 45.5322 2.2215C46.1186 2 46.8031 2 48.1719 2H57.722C59.3495 2 60.1634 2 60.861 2.33083C61.439 2.60487 62.0064 3.12337 62.3264 3.6701C62.7129 4.33023 62.7668 5.0554 62.8749 6.50577C62.9692 7.76953 63.017 9.04593 63.017 10.3333Z" stroke="#FF0000" stroke-width="4" stroke-linecap="round" stroke-linejoin="round"/>
</svg>
